<svg version="1.1" id="Layer_1" xmlns="http://www.w3.org/2000/svg" xmlns:xlink="http://www.w3.org/1999/xlink" viewBox="0 0 512 512" xml:space="preserve">
  <path d="M256,0C114.6,0,0,114.6,0,256s114.6,256,256,256s256-114.6,256-256S397.4,0,256,0z M256,482C126.5,482,30,385.5,30,256
    S126.5,30,256,30s226,96.5,226,226S385.5,482,256,482z"/>
  <path d="M256,60c-108.1,0-196,87.9-196,196s87.9,196,196,196s196-87.9,196-196S364.1,60,256,60z M256,422c-91.9,0-166-74.1-166-166
    S164.1,90,256,90s166,74.1,166,166S347.9,422,256,422z"/>
  <path d="M256,120c-74.4,0-136,61.6-136,136s61.6,136,136,136s136-61.6,136-136S330.4,120,256,120z M256,362c-58.4,0-106-47.6-106-106
    s47.6-106,106-106s106,47.6,106,106S314.4,362,256,362z"/>
  <path d="M256,180c-41.9,0-76,34.1-76,76s34.1,76,76,76s76-34.1,76-76S297.9,180,256,180z M256,302c-35.3,0-64-28.7-64-64
    s28.7-64,64-64s64,28.7,64,64S291.3,302,256,302z"/>
</svg>
